# xmcd
#
# Track frame offsets: 
#        183
#        22028
#        41573
#        60593
#        76140
#        95483
#        110515
#        128335
#        145713
#        165935
#        180378
#        197275
#        215750
#        231518
#        247628
#        269753
#        288158
#        305270
#
# Disc length: 4741 seconds
#
# Revision: 7
# Processed by: cddbd v1.5.2PL0 Copyright (c) Steve Scherf et al.
# Submitted via: ExactAudioCopy v0.95b4
#
DISCID=e9128312
DTITLE=Various Artist - The Collection
DYEAR=1990
DGENRE=Blues
TTITLE0=Randy Crawford - Knockin' On Heavens Door
TTITLE1=Randy Crawford - One Day I'll Fly Away
TTITLE2=Randy Crawford - Rainy Night In Georgia
TTITLE3=Randy Crawford - Windsong
TTITLE4=Randy Crawford - You Might Need Somebody
TTITLE5=Randy Crawford - Secret Combination
TTITLE6=Randy Crawford - Tender Falls The Rain
TTITLE7=Randy Crawford - This 'Ole Heart Of Mine
TTITLE8=Randy Crawford - Imagine
TTITLE9=Randy Crawford - On Hello
TTITLE10=Randy Crawford - Nightline
TTITLE11=Randy Crawford - Almaz
TTITLE12=Randy Crawford - Why
TTITLE13=Randy Crawford - I've Never Been To Me
TTITLE14=Randy Crawford - Trade Winds
TTITLE15=Randy Crawford - Same Old Story
TTITLE16=Gerard Joling and Randy Crawford - Everybody Needs A Little Rai
TTITLE16=n
TTITLE17=The Crusaders - Streetlife
EXTD=
EXTT0=
EXTT1=
EXTT2=
EXTT3=
EXTT4=
EXTT5=
EXTT6=
EXTT7=
EXTT8=
EXTT9=
EXTT10=
EXTT11=
EXTT12=
EXTT13=
EXTT14=
EXTT15=
EXTT16=
EXTT17=
PLAYORDER=
